
<svg height="300px" viewBox="0 0 300 234" width="850px" style="background-color:lightblue; background-size: contain; margin: 0 auto;" xmlns="http://www.w3.org/2000/svg" xmlns:xlink="http://www.w3.org/1999/xlink">
<title>SVG SMIL animation turtle swimming</title>
<g id="turtle">
<g>
	<path fill="#5a852c" d="m 183.6,2.8 l 0,105.7 l 41.8,0 l 0,-56.31 c 0,-24.9 -18,-45.39 -41.8,-49.39 z"/>
	<path fill="#496c24" d="m 183.6,35.59 l 0,72.91 l 41.8,0 l 0,-52.51 C 214,45.49 199.6,38.29 183.6,35.59 Z"/>
	<animateTransform repeatCount="indefinite" attributeName="transform" type="rotate"
	values="0 204 78; -20 204 78; 0 204 78" dur="3s" />
</g>
<g>
	<path fill="#5a852c" d="m 183.6,228.4 l 0,-105.8 l 41.8,0 l 0,56.4 c 0,24.9 -18,45.4 -41.8,49.4 z"/>
	<path fill="#496c24" d="m 183.6,122.6 l 0,74.5 c 16,-2.7 30.4,-9.9 41.8,-20.4 l 0,-54.1 l -41.8,0 z"/>
	<animateTransform repeatCount="indefinite" attributeName="transform" type="rotate"
	values="0 204 160; 20 204 160; 0 204 160" dur="3s" />
</g>
<g>
	<path fill="#5a852c" d="m 0,45.89 l 105.9,0 l 0,41.81 l -56.4,0 C 24.6,87.7 4.1,69.8 0.1,45.89 Z"/>
	<path fill="#496c24" d="M 78.46,45.89 C 59.86,53.29 45,67.9 37.2,86.3 c 3.9,0.9 8.1,1.4 12.3,1.4 l 56.4,0 l 0,-41.81 l -27.44,0 z"/>
	<animateTransform repeatCount="indefinite" attributeName="transform" type="rotate"
	values="0 68 78;20 68 78;0 68 78" dur="3s" />
</g>
<g>
	<path fill="#5a852c" d="m 0,185.3 l 105.9,0 l 0,-41.8 l -56.4,0 c -24.9,0 -45.4,18 -49.4,41.8 z"/>
	<path fill="#496c24" d="m 49.5,143.5 c -4.2,0 -8.4,0.5 -12.3,1.5 c 7.8,18.3 22.56,32.9 41.06,40.3 l 27.64,0 l 0,-41.8 l -56.4,0 z"/>
	<animateTransform repeatCount="indefinite" attributeName="transform" type="rotate"
	values="0 78 160;-20 78 160;0 78 160" dur="3s" />
</g>
<g transform="translate(149.6,108.5)">
	<rect rx="27" height="55.22" width="140.1" y="-20.6" x=".2598" fill="#638d3b"/>
	<path fill="#609639" d="m5.16 7.002c-1.7 0-3.3.2-4.9.4v.2c-.0002 15 12.1 27 27.1 27h86.04c15 0 27-12 27-27v-.6h-135.2z"/>
	<path fill="#496c24" d="m27.36-20.6c-15 0-27.1 12-27.1 27v1.2c-.0002 15 12.1 27 27.1 27h66.5c3.3-8.5 5.1-17.7 5.1-27.4v-.2c0-9.8-1.8-19.1-5.2-27.6h-66.4z"/>
	<path fill="#527a29" d="m5.16 7.002c-1.7 0-3.3.2-4.9.4v.2c-.0002 15 12.1 27 27.1 27h66.5c3.3-8.5 5.1-17.7 5.1-27.4v-.2h-93.8z"/>
</g>
<rect rx="75" height="150.2" width="188.6" y="40.61" x="46.2" fill="#639231"/>
<path fill="#5f8d2f" d="m181.5 43.8l-42.3 69.4 95.6 4.3v-1.8-.2c0-33.88-22.5-62.5-53.3-71.7z"/>
<path fill="none" d="m140 115.2l37.8 73.4c32.1-7.8 56-36.2 57-70.6l-94.8-2.8z"/>
<path fill="none" d="m138.5 113.2l-40.5 73.9c7.3 2.3 15.1 3.6 23.2 3.6h38.6c6.1 0 12.1-.7 17.7-2.1l-39-75.4z"/>
<path fill="#5a852c" d="m121 40.61c-8.3 0-16.3 1.4-23.8 4l41.8 68.7 42.1-69.5c-6.8-2-14-3.1-21.5-3.1h-38.6z"/>
<path fill="#5a852c" d="m137.8 114.5l-91.6 3c.8 32.6 22.1 60 51.5 69.5l40.1-72.5z"/>
<path fill="#5f8d2f" d="m97 44.6c-29.6 10-51 37.9-51 70.9v.2c0 .8 0 1.6.1 2.5l93.6-3-42.8-70.59z"/>
<path fill="#5a852c" d="m234.8 115.3l-62.7.2-20 25.4 31.9 45.8c29.6-10 50.8-37.9 50.8-71v-.2-.2z"/>
<path fill="#507728" d="m159.6 151h-41l-20.4-35.4 20.4-35.38h40.9l20.5 35.38z"/>
</g>
<g
     transform="matrix(1.3333333,0,0,-1.3333333,0,1056)"
     id="g10"><g
       id="g12"><g
         clip-path="url(#clipPath18)"
         id="g14"><text
           id="text22"
           style="font-variant:normal;font-weight:regular;font-size:18px;font-family:sans-serif;writing-mode:lr-tb;fill:#639231;fill-opacity:1;fill-rule:nonzero;stroke:none"
           transform="matrix(1,0,0,-1,75.024,710.98)"><tspan
             id="tspan20"
             y="-58px"
             x="-190px">Vinayak could look slow</tspan></text>
</g>
<animateTransform repeatCount="indefinite" attributeName="transform" type="rotate"
	values="0 -1 -1; 1 -1 -1; 0 -1 -2" dur="3s" />
</g><g
       id="g24"><g
         clip-path="url(#clipPath30)"
         id="g26" /></g></g>

<g
     transform="matrix(1.3333333,0,0,-1.3333333,0,1056)"
     id="g10"><g
       id="g12"><g
         clip-path="url(#clipPath18)"
         id="g14"><text
           id="text22"
           style="font-variant:normal;font-weight:regular;font-size:18px;font-family:sans-serif;writing-mode:lr-tb;fill:#fff;fill-opacity:1;fill-rule:nonzero;stroke:none"
           transform="matrix(1,0,0,-1,75.024,710.98)"><tspan
             id="tspan20"
             y="10px"
             x="10px">But</tspan></text>
</g>
<animateTransform repeatCount="indefinite" attributeName="transform" type="rotate"
	values="0 0 0; 1 1 0; 0 0 0" dur="3s" />
</g><g
       id="g24"><g
         clip-path="url(#clipPath30)"
         id="g26" /></g></g>


<g
     transform="matrix(1.3333333,0,0,-1.3333333,0,1056)"
     id="g10"><g
       id="g12"><g
         clip-path="url(#clipPath18)"
         id="g14"><text
           id="text22"
           style="font-variant:normal;font-weight:regular;font-size:18px;font-family:sans-serif;writing-mode:lr-tb;fill:#639231;fill-opacity:1;fill-rule:nonzero;stroke:none"
           transform="matrix(1,0,0,-1,75.024,710.98)"><tspan
             id="tspan20"
             y="78px"
             x="95px">is cheetah when he codes</tspan></text>
</g>
<animateTransform repeatCount="indefinite" attributeName="transform" type="rotate"
	values="0 1 1; -1 1 1; 0 1 2" dur="3s" />
</g><g
       id="g24"><g
         clip-path="url(#clipPath30)"
         id="g26" /></g></g>
</svg>